<svg xmlns="http://www.w3.org/2000/svg" width="423" height="433" fill="none"><g clip-path="url(#a)"><path fill="#AFAFAF" d="M156.458 302.687a165.424 165.424 0 0 1-12.515-.522c-45.748-3.742-98.747-25.555-121.534-65.274-19.91-34.728-27.724-79.683-18.66-118.399 8.52-36.406 34.954-65.888 71.956-77.086 41.621-12.588 87.615 2.71 128.56-14.49 59.605-25.024 134.521-5.154 176.295 42.47 37.033 42.223 46.004 110.3 34.37 163.046-5.878 26.66-21.333 52.338-45.932 65.755-19.572 10.677-43.24 12.783-65.627 10.002-17.994-2.24-34.565-8.1-51.883-12.926-13.877-3.866-25.266-1.851-39.47.951-18.271 3.62-36.859 6.555-55.56 6.473Z" opacity=".41"/><path stroke="#fff" stroke-dasharray="3.85 3.85" stroke-miterlimit="10" stroke-width="1.946" d="M166.67 277.213c-3.369-.01-6.749-.153-10.118-.429-37.023-3.027-79.904-20.678-98.338-52.819-16.11-28.091-22.44-64.466-15.106-95.81 6.902-29.451 28.276-53.309 58.222-62.37 33.674-10.185 70.891 2.189 104.032-11.719 48.227-20.248 108.845-4.172 142.652 34.36 29.967 34.166 37.217 89.255 27.816 131.94-4.752 21.567-17.257 42.346-37.166 53.207-15.844 8.641-34.985 10.349-53.102 8.089-14.563-1.81-27.969-6.555-41.979-10.462-11.235-3.129-20.442-1.503-31.943.767-14.799 2.935-29.833 5.308-44.97 5.246Z"/><path fill="#515159" d="M382.936 419.685c9.95 0 18.015-.613 18.015-1.37 0-.757-8.065-1.37-18.015-1.37-9.949 0-18.014.613-18.014 1.37 0 .757 8.065 1.37 18.014 1.37Z" opacity=".87"/><path fill="#AFAFAF" d="M385.221 366.591s-15.424-10.462-5.52-25.678c9.903-15.207 7.435-20.494 3.963-24.779 8.418 9.572 6.575 20.473 1.557 27.386-5.019 6.913-5.817 16.332 0 23.071Z"/><path fill="#FEFEFE" d="M397.807 379.578h-29.741l2.899 37.602h23.944l2.898-37.602Z"/><path fill="#8B8B8C" d="M400.951 377.656h-36.029v4.407h36.029v-4.407Z"/><path fill="#5A5A63" d="M393.875 373.688h-21.886a3.93 3.93 0 0 0-3.932 3.927v.041h29.741v-.041a3.916 3.916 0 0 0-3.923-3.927Z"/><path fill="#254BB7" d="m396.157 400.992.697-9.102h-27.836l.696 9.102h26.443Z"/><path fill="#AFAFAF" d="M397.807 377.656v-.041a3.93 3.93 0 0 0-3.933-3.927h-10.835a3.931 3.931 0 0 1 3.933 3.927v.041h3.144v4.407h-3.339l-2.714 35.117h10.836l2.714-35.117h3.338v-4.407h-3.144Z"/><path fill="#2F2F35" d="M238.112 143.832s6.237-19.522-2.878-25.187c-5.786-2.976-8.951.726-8.951.726s-2.724-13.805-21.476-9.244c-12.146 2.955-15.987-3.304-15.987-3.304s-.112 17.303 8.255 22.447c6.063 5.185 3.738 19.215 3.738 19.215l37.299-4.653Z"/><path fill="#515159" d="M293.374 398.926s33.776 1.013 43.198 9.705c9.914 9.132 20.309 23.408-22.357 23.132-42.675-.276-80.497-12.006-116.291-8.284-35.793 3.723-65.155 10.135-73.717 8.713-8.552-1.421 52.426-30.597 52.426-30.597l113.218 4.152 3.523-6.821Z" opacity=".87"/><path fill="#A87D1D" d="m261.791 323.078-42.573-4.275-42.574 4.275s-2.53 20.084-10.753 30.801l53.327 19.124 53.326-19.124c-8.223-10.717-10.753-30.801-10.753-30.801Z"/><path fill="#A87D1D" d="m217.537 372.399 1.679.604 1.68-.604c9.811-22.538 7.466-47.818 6.882-52.737l-8.562-.859-10.958 1.095c-.215 5.409-.584 30.106 9.279 52.501Z"/><path fill="#895436" d="M176.398 324.714s44.796 19.727 88.066 11.157c-1.946-7.015-2.673-12.793-2.673-12.793l-42.573-4.275-34.196 3.426-8.624 2.485Z"/><path fill="#515159" d="M197.075 129.27c6.063 5.185 3.738 19.215 3.738 19.215l7.927-.992c8.142-7.23 17.328-16.392 15.997-19.839-2.335-6.043-9.094-12.077-21.548-12.772-12.453-.685-14.369-8.059-14.369-8.059s-.112 17.303 8.255 22.447Z"/><path fill="#fff" d="m217.67 178.264-35.2 12.814-5.827 132s12.443 5.819 42.573 5.819V180.309l-1.546-2.045Zm3.093 0 35.2 12.814 5.827 132s-12.443 5.819-42.573 5.819V180.309l1.546-2.045Z"/><path fill="#FF7E6E" d="m182.471 191.067-.164.062a38.114 38.114 0 0 0-22.562 21.669l-37.78 91.31 32.127 3.825 27.201-66.552 1.178-50.314Zm73.492 0 .164.062a38.114 38.114 0 0 1 22.562 21.669l37.78 91.31-32.127 3.825-27.201-66.552-1.178-50.314Z"/><path fill="#E8E8E8" d="m293.354 248.263-14.665-35.455a38.09 38.09 0 0 0-22.562-21.669l-.164-.061 1.188 50.302 7.701 18.858c10.283-8.611 20.606-11.403 28.502-11.975Zm-148.286 0 14.666-35.455a38.116 38.116 0 0 1 22.562-21.669l.164-.061-1.188 50.302-7.702 18.858c-10.272-8.611-20.595-11.403-28.502-11.975Z"/><path fill="#D3D3D3" d="M258.256 243.119s-.952-1.329-2.294-3.835l1.188 2.096s-13.395 74.223-49.189 87.23c3.441.185 7.179.297 11.255.297 30.13 0 42.574-5.819 42.574-5.819l-3.534-79.969Z"/><path fill="#FFF6E7" d="M165.889 233.394c9.084-25.433 9.586-25.239 29.413-29.892 19.828-4.663 15.936-22.896 15.936-22.896l-18.486 6.729-2.857 1.043-7.415 2.7-.164.061a38.113 38.113 0 0 0-22.561 21.669l-36.214 87.527c15.28-11.249 34.616-45.282 42.348-66.941Z" opacity=".52"/><path fill="#4C2A29" d="M272.543 233.394c-9.084-25.433-9.586-25.239-29.413-29.892-19.828-4.663-15.936-22.896-15.936-22.896l18.486 6.729 2.857 1.043 7.415 2.7.164.061a38.113 38.113 0 0 1 22.561 21.669l36.214 87.527c-15.28-11.249-34.616-45.282-42.348-66.941Z" opacity=".28"/><path fill="#FF7E6E" d="M219.31 194.544h-.195c-5.202 0-9.422-4.213-9.422-9.408v-22.457h19.029v22.457c.01 5.195-4.209 9.408-9.412 9.408Z"/><path fill="#4C2A29" d="M228.578 180.003c.051 0 .102-.011.154-.011v-17.313h-8.88l-10.149 3.661s3.769 13.663 18.875 13.663Z"/><path fill="#C64F4F" d="M241.347 149.181a6.106 6.106 0 0 1-6.114 6.105 6.106 6.106 0 1 1 0-12.21c3.38.01 6.114 2.74 6.114 6.105Z"/><path fill="#803D3D" d="M236.431 155.163c.881-3.538 1.404-8.058 1.68-11.341-.86-.46-1.833-.746-2.878-.746a6.106 6.106 0 1 0 0 12.21c.42 0 .809-.041 1.198-.123Z"/><path fill="#C64F4F" d="M197.074 149.181a6.107 6.107 0 0 0 6.114 6.105 6.106 6.106 0 1 0 0-12.21c-3.379.01-6.114 2.74-6.114 6.105Z"/><path fill="#803D3D" d="M202.002 155.163c-.881-3.538-1.403-8.058-1.68-11.341.861-.46 1.833-.746 2.878-.746a6.105 6.105 0 1 1 0 12.21c-.42 0-.819-.041-1.198-.123Z"/><path fill="#FF7E6E" d="M229.969 127.849h-21.507l-5.325 11.617.891 11.494c.481 6.136 4.444 16.72 10.026 19.328 1.659.777 3.421 1.288 5.151 1.288 1.742 0 3.493-.511 5.152-1.288 5.581-2.598 9.555-13.192 10.026-19.328l.891-11.494-5.305-11.617Z"/><path stroke="#2F2F35" stroke-linecap="round" stroke-miterlimit="10" stroke-width="1.336" d="M224.736 142.421s3.605 1.013 7.692 0"/><path stroke="#2F2F35" stroke-linecap="round" stroke-miterlimit="10" stroke-width="2.672" d="M223.568 135.815s5.275-.88 8.439.951"/><path stroke="#2F2F35" stroke-linecap="round" stroke-miterlimit="10" stroke-width="1.336" d="M213.697 142.421s-3.605 1.013-7.691 0"/><path stroke="#2F2F35" stroke-linecap="round" stroke-miterlimit="10" stroke-width="2.672" d="M214.865 135.815s-5.275-.88-8.439.951"/><path fill="#FFF6E7" d="M210.644 152.443c-.707-11.617-2.181-24.594-2.181-24.594l-5.326 11.617.287 3.65c-.082 0-.154-.02-.236-.02a6.106 6.106 0 1 0 0 12.21 6.32 6.32 0 0 0 1.537-.215c1.444 5.932 4.864 13.131 9.329 15.207 1.66.777 3.421 1.288 5.152 1.288.01-.02-7.855-7.536-8.562-19.143Z" opacity=".52"/><path fill="#8C4242" d="m255.962 374.71-121.636-36.845c-16.151-4.888-33.142 4.602-37.402 20.902l-.164.614c-4.393 16.802 6.514 33.767 23.637 36.763 44.97 7.854 126.492 21.199 169.393 22.836l18.086 12.036a7.066 7.066 0 0 0 8.746-.726l.092-.092c2.847-2.659 2.991-7.128.328-9.971l-2.816-3.006s-2.509-12.231-14.932-17.467c-12.413-5.246-13.58-18.049-16.499-25.044-2.929-6.984-21.589-10.482-26.833 0Z"/><path fill="#254BB7" d="M96.913 358.768c4.271-16.301 21.251-25.801 37.402-20.903l41.252 12.497c-6.216 7.741-14.41 23.448-14.655 52.614a3391.793 3391.793 0 0 1-40.515-6.831c-17.124-2.986-28.041-19.962-23.637-36.764l.153-.613Z"/><path fill="#A87D1D" d="M135.288 384.384c0 4.95-1.188 9.623-3.288 13.765-4.076-.695-7.968-1.37-11.603-2.004-17.124-2.986-28.041-19.962-23.637-36.764l.163-.613a28.9 28.9 0 0 1 1.455-4.224 30.434 30.434 0 0 1 6.37-.664c16.857 0 30.54 13.652 30.54 30.504Z" opacity=".67"/><path stroke="#7B3C38" stroke-miterlimit="10" stroke-width="1.139" d="M261.789 391.604s-1.752 10.175-18.66 6.545"/><path fill="#4C2A29" d="M272.542 386.941s-25.911-1.166-80.743-10.932c-44.417-7.915-57.444-30.607-60.793-38.941 1.106.204 2.212.46 3.308.797l121.637 36.845c5.254-10.481 23.913-6.984 26.832 0 2.919 6.985 4.087 19.798 16.499 25.045 12.413 5.246 14.932 17.466 14.932 17.466s-12.771-8.15-20.841-9.899c-8.07-1.749-20.831-20.381-20.831-20.381Z" opacity=".28"/><path fill="#2F2F35" d="M278.156 418.315s22.336 21.342 41.375 12.558c3.165-1.462 4.158-5.502 2.089-8.304-16.038-21.751-36.264-45.445-43.976-54.352a7.56 7.56 0 0 0-7.814-2.311l-21.937 6.36 30.263 46.049Z"/><path fill="#A5A5A5" d="m247.892 372.266-21.005-6.36 15.915 48.902 35.353 3.507-30.263-46.049Z"/><path fill="#FF7E6E" d="m182.47 374.71 121.637-36.845c16.151-4.888 33.141 4.602 37.402 20.903l.164.613c4.393 16.802-6.514 33.767-23.638 36.764-44.97 7.853-126.491 21.199-169.392 22.835l-18.086 12.036a7.066 7.066 0 0 1-8.747-.726l-.092-.092c-2.847-2.659-2.99-7.128-.328-9.971l2.817-3.006s2.519-12.231 14.932-17.466c12.412-5.247 13.58-18.05 16.499-25.045 2.918-6.984 21.589-10.481 26.832 0Z"/><path fill="#254BB7" d="M341.509 358.768c-4.27-16.301-21.251-25.801-37.401-20.903l-41.253 12.497c6.217 7.741 14.41 23.448 14.656 52.614a3395.218 3395.218 0 0 0 40.515-6.831c17.134-2.986 28.041-19.962 23.637-36.764l-.154-.613Z"/><path fill="#A87D1D" d="M303.145 384.384c0 4.95 1.188 9.623 3.287 13.765 4.076-.695 7.968-1.37 11.604-2.004 17.133-2.986 28.04-19.962 23.637-36.764l-.164-.613a29.005 29.005 0 0 0-1.454-4.224 30.446 30.446 0 0 0-6.371-.664c-16.867 0-30.539 13.652-30.539 30.504Z" opacity=".67"/><path fill="#4C2A29" d="M165.889 386.941s25.911-1.166 80.743-10.932c44.417-7.915 57.444-30.607 60.793-38.941-1.106.204-2.212.46-3.308.797L182.48 374.71c-5.254-10.481-23.914-6.984-26.832 0-2.919 6.985-4.087 19.798-16.499 25.045-12.413 5.246-14.932 17.466-14.932 17.466s12.771-8.15 20.841-9.899c8.06-1.749 20.831-20.381 20.831-20.381Z" opacity=".28"/><path stroke="#fff" stroke-miterlimit="10" stroke-width="1.114" d="m139.139 399.755-18.229-3.375c-16.499-2.628-27.683-18.213-24.866-34.657l.112-.644c3.073-17.937 21.302-29.022 38.672-23.531l34.431 10.901" opacity=".57"/><path fill="#fff" d="M212.959 152.248c-.655 0-1.044.757-.635 1.279 1.823 2.342 4.24 3.773 6.903 3.773 2.652 0 5.08-1.431 6.903-3.773.399-.512.02-1.279-.635-1.279h-12.536Z"/><path stroke="#2F2F35" stroke-linecap="round" stroke-miterlimit="10" stroke-width=".821" d="M221.019 142.165v6.32s-1.454-.818-3.482 0"/><path fill="#FF7E6E" d="M226.293 119.371h-1.557v9.889h1.557v-9.889Zm90.175 184.737.062.174c3.645 10.083-.717 21.302-10.232 26.271l-64.951 34.003-.317-.829c-5.725-14.766.266-31.476 14.061-39.279l29.25-16.525 32.127-3.815Z"/><path fill="#4C2A29" d="M302.756 324.939c0 2.393.594 4.643 1.649 6.627l1.905-1.002c7.496-3.927 11.777-11.73 11.47-19.798-.266-.011-.522-.041-.789-.041-7.865 0-14.235 6.361-14.235 14.214Z" opacity=".28"/><path stroke="#4C2A29" stroke-linecap="round" stroke-miterlimit="10" stroke-width="1.336" d="m284.34 307.933 18.414-10.421"/><path fill="#FF7E6E" d="m122.149 304.108-.062.174c-3.646 10.083.717 21.302 10.232 26.271l64.95 34.003.318-.829c5.725-14.766-.266-31.476-14.062-39.279l-29.249-16.525-32.127-3.815Z"/><path fill="#4C2A29" d="M135.862 324.939c0 2.393-.594 4.643-1.649 6.627l-1.905-1.002c-7.497-3.927-11.777-11.73-11.47-19.798.266-.011.522-.041.788-.041 7.866 0 14.236 6.361 14.236 14.214Z" opacity=".28"/><path stroke="#4C2A29" stroke-linecap="round" stroke-miterlimit="10" stroke-width="1.336" d="m154.275 307.933-18.414-10.421m54.199 63.28s3.277-17.957-7.394-23.724m65.707 23.724s-3.277-17.957 7.394-23.724"/><path fill="#2F2F35" d="M160.278 418.315s-22.336 21.342-41.375 12.558c-3.164-1.462-4.158-5.502-2.089-8.304 16.038-21.751 36.265-45.445 43.976-54.352a7.561 7.561 0 0 1 7.815-2.311l21.937 6.36-30.264 46.049Z"/><path fill="#ECECEC" d="m190.53 372.266 21.016-6.36-15.915 48.902-35.354 3.507 30.253-46.049Z"/><path fill="#4C2A29" d="M181.795 385.571c6.237-.665 14.328-1.636 24.344-3.048l5.407-16.617-21.005 6.36-8.746 13.305Z" opacity=".28"/><path fill="#FFF6E7" d="m166.976 403.467-12.187 18.55a3.586 3.586 0 0 1-3.482 1.585l-.082-.01c-2.643-.358-3.984-3.365-2.489-5.563l12.464-18.377a3.431 3.431 0 0 1 3.625-1.411l.072.02c2.314.532 3.38 3.212 2.079 5.206Z"/><path fill="#AFAFAF" d="M217.537 296.265h-74.588l18.394 65.407h112.399l18.394-65.407h-74.599Z"/><path fill="#8B8B8C" d="M273.743 361.672H161.344v9.531h112.399v-9.531Z"/><path fill="#5A5A63" d="M217.67 343.449c10.073 0 18.24-4.176 18.24-9.327 0-5.15-8.167-9.326-18.24-9.326-10.074 0-18.24 4.176-18.24 9.326 0 5.151 8.166 9.327 18.24 9.327Zm74.455-51.53H142.949v4.336h149.176v-4.336Zm-113.301 72.483h-11.256v3.835h11.256v-3.835Zm16.244 0h-11.256v3.835h11.256v-3.835Z"/><path stroke="#0F1201" stroke-miterlimit="10" d="M273.743 366.437H205.33"/><path fill="#fff" d="m142.949 296.265 18.394 65.407h40.033c23.771-27.519 38.211-65.407 38.211-65.407l-.051-4.336h-96.587v4.336Z" opacity=".54"/><path stroke="#0F1201" stroke-miterlimit="10" d="M142.949 296.265h149.187" opacity=".57"/><path fill="#515159" d="M65.454 419.686c14.938 0 27.047-.614 27.047-1.371s-12.11-1.37-27.047-1.37c-14.938 0-27.048.613-27.048 1.37 0 .757 12.11 1.371 27.048 1.371Z" opacity=".87"/><path fill="#5A5A63" d="m69.407 404.868 1.772-1.933-.891.961.89-.961c-.215-.205-21.568-21.823 4.22-119.197l-2.54-.665c-26.31 99.42-4.393 120.925-3.451 121.795Z"/><path fill="#5A5A63" d="M61.46 285.425c9.77 8.866 8.06 19.338 8.06 19.338s-9.78-4.162-12.054-17.15c-.4-2.27 2.284-3.742 3.994-2.188Z"/><path fill="#5A5A63" d="M85.895 291.683c-12.832 3.079-16.376 13.08-16.376 13.08s10.58 1.043 18.824-9.245c1.444-1.8-.194-4.377-2.448-3.835Zm-31.123 19.205c10.61 7.834 9.965 18.438 9.965 18.438s-10.149-3.16-13.713-15.85c-.635-2.219 1.884-3.958 3.748-2.588Z"/><path fill="#5A5A63" d="M79.71 314.662c-12.454 4.346-14.983 14.664-14.983 14.664s10.63-.02 17.8-11.085c1.259-1.943-.636-4.336-2.817-3.579Zm-29.188 18.561c11.163 7.035 11.296 17.65 11.296 17.65s-10.354-2.403-14.85-14.797c-.778-2.168 1.598-4.081 3.554-2.853Zm25.153 1.922c-12.105 5.256-13.857 15.728-13.857 15.728s10.6-.808 16.93-12.364c1.116-2.035-.943-4.284-3.073-3.364Zm6.708-69.232c.226 13.172-8.602 19.103-8.602 19.103s-3.657-9.971 4.26-20.514c1.393-1.841 4.301-.9 4.342 1.411Z"/><path fill="#254BB7" d="M78.614 361.692H50.256v56.02h28.358v-56.02Z"/><path fill="#A87D1D" d="M78.604 361.692H67.277v56.02h11.327v-56.02Z" opacity=".67"/><path fill="#A87D1D" d="m91.056 94.531-10.2 2.537a2.76 2.76 0 0 1-3.35-2.015l-.983-3.947L92.09 87.24l.983 3.948a2.76 2.76 0 0 1-2.017 3.343Z"/><path fill="#A87D1D" d="m128.98 82.383-88.147 21.894a2.86 2.86 0 0 1-3.462-2.076L22.838 43.82a2.856 2.856 0 0 1 2.08-3.457l88.147-21.894a2.862 2.862 0 0 1 3.462 2.076l14.532 58.36a2.873 2.873 0 0 1-2.079 3.478Z"/><path fill="#254BB7" d="m126.358 72.29-2.448 7.055-78.213 19.42-6.944-4.714-14.4-57.83 87.605-21.761 14.4 57.83Z"/><path fill="#fff" d="M67.028 25.618 24.344 36.216l14.4 57.825 42.684-10.599-14.4-57.824Z"/><path fill="#AFAFAF" d="m64.396 30.569-35.072 8.708.504 2.024L64.9 32.593l-.504-2.024Zm1.614 6.467-35.073 8.712.505 2.024 35.072-8.712-.504-2.024Zm1.61 6.468-35.07 8.708.504 2.025 35.072-8.709-.504-2.024Zm1.608 6.474-35.072 8.708.504 2.025 35.073-8.709-.505-2.024Zm1.616 6.467-35.072 8.712.504 2.024 35.072-8.712-.504-2.024Zm1.611 6.478-35.072 8.708.504 2.025 35.072-8.708-.504-2.025Zm1.605 6.464-35.072 8.708.504 2.025 35.072-8.709-.504-2.024Zm1.617 6.467-35.072 8.711.505 2.025 35.072-8.712-.505-2.024Z"/><path fill="#fff" d="M111.956 14.451 69.272 25.054 83.677 82.88l42.685-10.603-14.406-57.825Z"/><path fill="#AFAFAF" d="m109 19.486-35.072 8.712.504 2.024 35.072-8.712-.504-2.024Zm1.605 6.484-35.072 8.71.504 2.024 35.072-8.708-.504-2.024Zm1.615 6.462L77.148 41.14l.505 2.025 35.072-8.709-.505-2.024Zm1.614 6.463-35.072 8.712.504 2.024 35.072-8.712-.504-2.024Zm1.613 6.482-35.072 8.709.504 2.024 35.072-8.708-.504-2.025Zm1.607 6.464L81.982 60.55l.505 2.025 35.072-8.708-.505-2.025Zm1.614 6.463-35.072 8.711.504 2.025 35.072-8.712-.504-2.024Zm1.611 6.483-35.072 8.708.504 2.024 35.072-8.708-.504-2.024Z"/><path fill="#254BB7" d="m88.382 91.147-6.749 1.677a2.765 2.765 0 0 1-3.349-2.015l-.614-2.475 12.115-3.006.615 2.475a2.756 2.756 0 0 1-2.018 3.344Zm149.893-83.15c-3.502-3.324-7.927-5.594-12.484-7.107l-.205-.062a24.399 24.399 0 0 0-12.607 0c-.102.031-.174.051-.205.062-4.557 1.513-8.982 3.783-12.484 7.107-10.426 9.899-8.736 27.867 1.423 37.346 2.848 2.659 4.097 6.095 4.968 9.879.266 1.135 1.771 13.028 1.249 13.028h22.705c-.522 0 .983-11.893 1.25-13.028.87-3.784 2.12-7.22 4.967-9.879 10.149-9.48 11.849-27.447 1.423-37.346Z"/><path fill="#FFF6E7" d="M215.201 55.212c-.871-3.784-2.12-7.22-4.967-9.879-10.149-9.48-11.849-27.447-1.424-37.346 3.503-3.324 7.927-5.594 12.485-7.107l.204-.062a23.51 23.51 0 0 1 2.049-.44 24.386 24.386 0 0 0-10.559.44c-.103.03-.174.051-.205.062-4.557 1.513-8.982 3.783-12.484 7.107-10.426 9.899-8.736 27.866 1.423 37.346 2.847 2.659 4.097 6.095 4.967 9.879.267 1.135 1.772 13.028 1.25 13.028h8.521c.512 0-1.004-11.883-1.26-13.028Z" opacity=".52"/><path stroke="#FEFEFE" stroke-linecap="round" stroke-miterlimit="10" stroke-width="2.239" d="M219.278 68.24V40.517l4.885-2.813c1.618-.93 1.29-3.344-.512-3.824l-8.89-2.342c-1.515-.399-1.689-2.485-.256-3.12l4.773-2.147v-9.408"/><path fill="#2F2F35" d="M232.888 72.054a1.53 1.53 0 0 1-1.526 1.524h-24.969c-.84 0-1.526-.685-1.526-1.524 0-.838.686-1.523 1.526-1.523h24.969c.85 0 1.526.685 1.526 1.523Zm0 4.582a1.53 1.53 0 0 1-1.526 1.523h-24.969c-.84 0-1.526-.685-1.526-1.523 0-.839.686-1.524 1.526-1.524h24.969c.85 0 1.526.685 1.526 1.524Zm0 4.581a1.53 1.53 0 0 1-1.526 1.524h-24.969a1.53 1.53 0 0 1-1.526-1.524c0-.839.686-1.524 1.526-1.524h24.969c.85 0 1.526.675 1.526 1.524Zm-14.009 12.21c4.926 0 8.92-3.988 8.92-8.907h-17.83c0 4.919 3.994 8.907 8.91 8.907Z"/><path fill="#666" d="M324.509 99.277v-7.17h-3.175a21.622 21.622 0 0 0-3.984-9.182l2.519-2.516-5.079-5.072-2.612 2.608a21.642 21.642 0 0 0-9.125-3.528v-3.743h-7.179v3.886a21.593 21.593 0 0 0-8.705 3.763l-2.54-2.536-5.08 5.072 2.571 2.567a21.384 21.384 0 0 0-3.677 9.152h-3.564v7.169h3.646a21.511 21.511 0 0 0 3.799 8.897l-2.806 2.802 5.08 5.072 2.837-2.833a21.52 21.52 0 0 0 8.9 3.631v3.865h7.179v-3.865a21.624 21.624 0 0 0 8.869-3.61l2.376 2.372 5.08-5.072-2.335-2.332a21.51 21.51 0 0 0 3.891-9.387h3.114v-.01Zm-24.58 8.815c-6.739 0-12.207-5.461-12.207-12.19 0-6.729 5.468-12.19 12.207-12.19 6.739 0 12.208 5.461 12.208 12.19 0 6.729-5.469 12.19-12.208 12.19Z"/><path fill="#9E9E9E" d="M353.124 126.458v-4.132h-1.833a12.459 12.459 0 0 0-2.294-5.297l1.454-1.452-2.929-2.925-1.505 1.504a12.427 12.427 0 0 0-5.264-2.035v-2.158h-4.138v2.24a12.416 12.416 0 0 0-5.018 2.167l-1.465-1.462-2.929 2.925 1.485 1.483a12.411 12.411 0 0 0-2.12 5.276h-2.058v4.132h2.099a12.452 12.452 0 0 0 2.192 5.133l-1.618 1.616 2.929 2.925 1.638-1.636a12.576 12.576 0 0 0 5.131 2.096v2.229h4.138v-2.229a12.52 12.52 0 0 0 5.121-2.086l1.372 1.37 2.929-2.925-1.342-1.339a12.374 12.374 0 0 0 2.243-5.42h1.782Zm-14.174 5.082c-3.892 0-7.046-3.149-7.046-7.035s3.154-7.036 7.046-7.036c3.892 0 7.046 3.15 7.046 7.036 0 3.886-3.154 7.035-7.046 7.035Z"/><path fill="#8B8B8C" d="M418.36 72.913V58.198h-6.513c-1.229-6.995-4.097-13.407-8.183-18.868l5.172-5.164-10.426-10.41-5.356 5.348c-5.49-3.743-11.87-6.248-18.742-7.24v-7.69h-14.737v7.976c-6.585 1.238-12.648 3.937-17.871 7.72l-5.213-5.204-10.426 10.41 5.284 5.277a44.272 44.272 0 0 0-7.558 18.785h-7.322v14.716h7.476a44.326 44.326 0 0 0 7.804 18.274l-5.756 5.748 10.426 10.41 5.827-5.819a44.39 44.39 0 0 0 18.271 7.455v7.946h14.737v-7.946c6.688-1.115 12.884-3.681 18.209-7.414l4.875 4.868 10.426-10.41-4.793-4.786a44.258 44.258 0 0 0 7.988-19.277h6.401v.01Zm-50.469 18.1c-13.847 0-25.071-11.207-25.071-25.033s11.224-25.034 25.071-25.034c13.846 0 25.071 11.208 25.071 25.034.01 13.816-11.225 25.034-25.071 25.034Z"/><path fill="#666" d="M367.42 80.726c8.128 0 14.717-6.58 14.717-14.695 0-8.116-6.589-14.695-14.717-14.695s-14.717 6.58-14.717 14.695c0 8.116 6.589 14.695 14.717 14.695Z"/><path fill="#5A5A63" d="M80.814 141.184C49.2 143.096 24.62 162.015 25.92 183.439c1.301 21.424 27.99 37.233 59.605 35.321h.072c3.113-.194 5.285-3.191 4.516-6.207a19.873 19.873 0 0 1-.614-4.592c-.164-10.216 7.753-18.98 17.933-19.9 7.394-.665 14.143 2.802 18.045 8.447 1.925 2.781 6.012 2.986 8.091.307 4.752-6.106 7.281-13.059 6.841-20.31-1.301-21.424-27.98-37.234-59.595-35.321Z"/><path fill="#8B8B8C" d="M80.6 137.717c-31.616 1.912-56.195 20.831-54.894 42.255 1.3 21.424 27.99 37.234 59.604 35.321h.072c3.114-.194 5.285-3.19 4.517-6.207a19.314 19.314 0 0 1-.605-4.592c-.163-10.216 7.753-18.979 17.933-19.9 7.394-.665 14.143 2.802 18.045 8.447 1.926 2.782 6.012 2.986 8.091.307 4.752-6.105 7.282-13.059 6.841-20.309-1.3-21.424-27.989-37.234-59.605-35.322Z"/><path fill="#254BB7" d="M69.436 198.451c.235 3.804-2.673 7.076-6.483 7.312-3.81.235-7.087-2.67-7.323-6.474-.235-3.804 2.673-7.076 6.483-7.311a6.907 6.907 0 0 1 7.323 6.473Zm-18.834-13.069c.236 3.804-2.673 7.076-6.483 7.311-3.81.236-7.087-2.669-7.322-6.473-.236-3.804 2.673-7.076 6.482-7.312 3.81-.225 7.087 2.669 7.323 6.474Zm5.531-22.856c.236 3.804-2.673 7.076-6.483 7.312a6.915 6.915 0 0 1-7.322-6.474c-.236-3.804 2.673-7.076 6.483-7.311 3.82-.225 7.097 2.669 7.322 6.473Zm23.35-12.343c.235 3.804-2.673 7.076-6.483 7.312a6.915 6.915 0 0 1-7.323-6.474c-.235-3.804 2.673-7.076 6.483-7.311 3.81-.236 7.087 2.669 7.323 6.473Zm26.289.337c.235 3.804-2.673 7.077-6.483 7.312a6.915 6.915 0 0 1-7.323-6.473c-.235-3.804 2.674-7.077 6.483-7.312a6.915 6.915 0 0 1 7.323 6.473Zm22.183 12.487c.236 3.804-2.673 7.076-6.482 7.311-3.81.236-7.087-2.669-7.323-6.473-.235-3.804 2.673-7.076 6.483-7.312 3.82-.235 7.097 2.669 7.322 6.474Z"/><path fill="#2F2F35" d="m111.375 141.807-6.513 13.601c-.861-.04-1.69.45-2.028 1.289l-.021.041a2.082 2.082 0 0 0 1.147 2.71l.615.245c-.123-.041-.738-.112-2.048 1.79a5.594 5.594 0 0 0-.246.368.074.074 0 0 0-.021.041c-.082.123-.164.256-.246.388-.02.031-.03.052-.051.082-.082.123-.153.266-.235.399-.021.041-.052.082-.072.123-.072.133-.154.276-.236.419-.03.061-.061.113-.092.174-.071.143-.153.286-.235.44-.041.071-.082.153-.123.225-.072.143-.154.296-.236.45-.051.092-.092.184-.143.286-.072.153-.154.307-.225.47-.052.113-.113.225-.164.338-.072.163-.154.317-.236.491-.061.122-.123.255-.184.388-.082.164-.154.338-.236.512-.071.153-.133.306-.205.46-.071.174-.153.347-.225.521-.072.174-.153.358-.225.532-.072.184-.154.358-.226.542-.081.194-.163.399-.245.603-.072.184-.154.369-.226.563-.092.225-.184.46-.276.695-.072.195-.154.379-.225.573-.103.266-.215.542-.318.818-.072.184-.133.348-.205.532a178.6 178.6 0 0 1-.389 1.022c-.051.144-.113.287-.164.44-.184.501-.379 1.023-.573 1.565-.523 1.452-1.127 3.16-1.803 5.051-.082.215-.153.43-.235.655-.103.286-.205.583-.308.879-.081.246-.174.481-.256.737-.133.388-.276.787-.42 1.186a9.78 9.78 0 0 1-.194.542l-.43 1.207c-.072.204-.144.409-.215.623-.133.379-.277.778-.41 1.166-.082.246-.164.481-.256.726-.164.45-.317.91-.481 1.381l-.185.521c-.163.471-.338.951-.501 1.432l-.216.614c-.153.45-.317.9-.47 1.36-.083.235-.165.46-.246.695-.164.481-.338.972-.513 1.462-.071.215-.143.42-.215.634-.163.481-.338.972-.501 1.453-.082.245-.164.48-.256.726l-.461 1.319c-.113.317-.215.624-.328.941-.133.378-.266.756-.4 1.145-.122.358-.245.726-.378 1.084-.144.409-.277.818-.42 1.227-.072.215-.144.43-.226.644a2338.449 2338.449 0 0 0-3.44 10.063 75.765 75.765 0 0 0 3.03-.133h.072c3.114-.194 5.285-3.191 4.517-6.207a19.322 19.322 0 0 1-.604-4.592c-.144-8.938 5.899-16.771 14.235-19.205.922-1.994 1.741-3.783 2.438-5.287 7.332-16.034 5.509-17.476 5.284-17.589l.615.246a2.087 2.087 0 0 0 2.714-1.146l.02-.041a2.061 2.061 0 0 0-.952-2.607l4.875-14a63.454 63.454 0 0 0-7.149-3.048Zm-6.79 17.896.174.072-.174-.072Z" opacity=".68"/><path fill="#fff" d="M54.945 161.473a2.893 2.893 0 0 1-5.776.347 2.893 2.893 0 0 1 2.714-3.057 2.9 2.9 0 0 1 3.062 2.71Zm23.35-12.098a2.895 2.895 0 0 1-2.714 3.058 2.895 2.895 0 0 1-3.062-2.71 2.893 2.893 0 0 1 2.714-3.058 2.882 2.882 0 0 1 3.062 2.71Zm24.734-.624a2.894 2.894 0 0 1-5.776.348 2.894 2.894 0 0 1 2.714-3.058 2.901 2.901 0 0 1 3.062 2.71Zm-55.346 34.596a2.893 2.893 0 0 1-5.776.347 2.893 2.893 0 0 1 2.714-3.057 2.888 2.888 0 0 1 3.062 2.71Zm20.493 13.099a2.893 2.893 0 0 1-5.776.348 2.895 2.895 0 0 1 2.713-3.058 2.889 2.889 0 0 1 3.063 2.71Z" opacity=".42"/><path fill="#254BB7" d="M136.651 137.697s9.433-5.144 10.037-13.1c-.041-4.704-2.079-8.56-2.079-8.56l-1.291 4.848s-.706-7.609-6.155-11.29c-5.438-3.682-4.106-2.649-4.106-2.649s4.567 6.054-.502 16.096c-5.07 10.042 1.331 13.53 1.331 13.53l2.765 1.125Z"/><path fill="#A87D1D" d="M136.066 134.434s-1.71-8.733 2.192-13.427c-5.07 6.412-6.114 11.576-4.844 15.738l2.652-2.311Z"/><path fill="#fff" d="M131.51 136.163a3.583 3.583 0 0 1 4.558-1.729l.03.011.031.01a3.562 3.562 0 0 1 2.048 4.418l-6.206 19.031-4.67-1.902-4.67-1.903 8.879-17.936Z"/><path fill="#CCC" d="m121.913 158.354 7.896 3.211a2.088 2.088 0 0 0 2.714-1.146l.02-.041a2.082 2.082 0 0 0-1.147-2.71l-7.896-3.211a2.087 2.087 0 0 0-2.714 1.146l-.02.041a2.08 2.08 0 0 0 1.147 2.71Z"/><path fill="#2F2F35" d="m122.548 158.619 3.318 1.35 3.318 1.35s2.519.593-5.254 17.6c-5.776 12.639-20.646 44.33-29.208 61.265-.799 1.585-3.206.603-2.673-1.084 5.714-18.09 17.257-51.141 21.957-64.221 6.319-17.589 8.542-16.26 8.542-16.26Z"/><path fill="#fff" d="M104.851 219.476c-3.697 7.71-7.271 15.032-10.139 20.698-.799 1.585-3.206.603-2.673-1.084 1.915-6.054 4.475-13.795 7.22-21.895l5.592 2.281Z"/><path fill="#fff" d="M103.684 204.28c12.187-15.064 16.765-43.758 16.785-43.881-1.352 1.963-3.441 6.044-6.472 14.48-2.294 6.381-6.227 17.548-10.313 29.401Z" opacity=".75"/><path fill="#9E9E9E" d="m339.635 168.958 2.161 4.367 4.834.695-3.492 3.406.819 4.796-4.322-2.26-4.312 2.26.82-4.796-3.493-3.406 4.834-.695 2.151-4.367Z"/><path fill="#666" d="m401.801 162.853 3.021 6.095 6.739.982-4.875 4.745 1.147 6.708-6.032-3.17-6.033 3.17 1.158-6.708-4.875-4.745 6.739-.982 3.011-6.095Z"/><path fill="#9E9E9E" d="m382.937 254.266 1.679 3.405 3.769.542-2.724 2.649.645 3.742-3.369-1.759-3.37 1.759.645-3.742-2.724-2.649 3.769-.542 1.68-3.405Z"/><path fill="#666" d="m322.901 231.195 3.011 6.105 6.738.982-4.874 4.745 1.147 6.708-6.022-3.17-6.033 3.17 1.148-6.708-4.875-4.745 6.738-.982 3.022-6.105Z"/><path fill="#254BB7" d="M380.708 245.611c17.236-6.902 25.605-26.448 18.694-43.658-6.912-17.211-26.487-25.568-43.723-18.667s-25.605 26.448-18.694 43.658c6.911 17.211 26.487 25.568 43.723 18.667Z"/><path fill="#A87D1D" d="M359.134 246.78c11.88 3.313 24.036-.184 32.332-8.14a33.58 33.58 0 0 1-17.708-.092c-17.881-4.98-28.338-23.5-23.35-41.355a33.366 33.366 0 0 1 9.084-15.176c-11.102 2.976-20.401 11.556-23.709 23.408-4.987 17.855 5.469 36.375 23.351 41.355Z" opacity=".67"/><path fill="#FFF6E7" d="M377.21 182.109a34.014 34.014 0 0 0-5.028-1.002 36.42 36.42 0 0 0-1.352 9.858c0 17.477 12.249 32.08 28.645 35.751.41-1.053.779-2.137 1.086-3.252 4.987-17.855-5.469-36.364-23.351-41.355Z" opacity=".52"/><path stroke="#666" stroke-miterlimit="10" stroke-width="2" d="M334.667 211.683c-13.047-5.072-21.159-9.663-20.472-12.107 1.136-4.06 26.166-.624 55.928 7.659 29.751 8.294 52.948 18.295 51.821 22.355-.676 2.433-9.944 2.178-23.657-.205"/></g><defs><clipPath id="a"><path fill="#fff" d="M0 0h423v433H0z"/></clipPath></defs></svg>